<svg width="112" height="62" viewBox="0 0 112 62" fill="none" xmlns="http://www.w3.org/2000/svg">
<ellipse cx="30.8406" cy="31" rx="30.8406" ry="31" fill="#4FD1C5"/>
<rect x="30.3587" y="56.6719" width="31.3225" height="5.32812" fill="#4FD1C5"/>
<ellipse cx="13.7337" cy="25.4297" rx="7.71014" ry="7.75" fill="white"/>
<ellipse cx="30.8406" cy="12.8359" rx="7.71014" ry="7.75" fill="white"/>
<ellipse cx="47.9474" cy="25.4297" rx="7.71014" ry="7.75" fill="white"/>
<ellipse cx="41.442" cy="45.6523" rx="7.71014" ry="7.75" fill="white"/>
<ellipse cx="20.2391" cy="45.6523" rx="7.71014" ry="7.75" fill="white"/>
<ellipse cx="30.8406" cy="31" rx="2.65036" ry="2.66406" fill="white"/>
<path d="M110.977 0V50.5855H101.882V8.91668H101.588L89.8445 16.4749V8.07689L102.323 0H110.977Z" fill="#1A202C"/>
<path d="M64.3631 50.9891C61.942 50.9891 59.7614 50.56 57.821 49.702C55.8974 48.8274 54.3718 47.5403 53.2441 45.8405C52.1329 44.1409 51.5775 42.0451 51.5775 39.5534C51.5775 37.4082 51.9755 35.6342 52.7715 34.2315C53.5675 32.829 54.6537 31.7068 56.03 30.8652C57.4065 30.0237 58.9571 29.3883 60.6818 28.9592C62.4229 28.5136 64.2223 28.1919 66.0797 27.994C68.3184 27.763 70.1342 27.5566 71.5272 27.3751C72.9203 27.1771 73.9318 26.8801 74.562 26.484C75.2088 26.0715 75.5321 25.4362 75.5321 24.5781V24.4295C75.5321 22.5649 74.9765 21.121 73.8655 20.0978C72.7544 19.0746 71.1541 18.5631 69.0645 18.5631C66.859 18.5631 65.1095 19.0417 63.816 19.9988C62.539 20.9558 61.6768 22.0862 61.2289 23.39L52.8211 22.2017C53.4845 19.8916 54.5791 17.9608 56.1047 16.4096C57.6303 14.842 59.496 13.6704 61.7016 12.8948C63.9072 12.1027 66.3449 11.7067 69.0149 11.7067C70.8556 11.7067 72.688 11.9212 74.5123 12.3502C76.3364 12.7793 78.003 13.4889 79.512 14.479C81.0213 15.4526 82.2319 16.781 83.1439 18.4641C84.0725 20.1474 84.5369 22.2513 84.5369 24.776V50.2218H75.8803V44.999H75.5818C75.0346 46.0551 74.2635 47.0453 73.2684 47.9692C72.29 48.8769 71.0546 49.6113 69.5621 50.1724C68.0863 50.7168 66.3532 50.9891 64.3631 50.9891ZM66.7015 44.4049C68.5091 44.4049 70.0761 44.0502 71.4029 43.3406C72.7295 42.6144 73.7494 41.6573 74.4625 40.4692C75.1921 39.2811 75.557 37.9858 75.557 36.5831V32.1028C75.275 32.3338 74.7941 32.5484 74.1143 32.7464C73.4509 32.9444 72.7047 33.1176 71.8754 33.2663C71.0463 33.4147 70.2255 33.5467 69.4129 33.6623C68.6003 33.7778 67.8955 33.8768 67.2985 33.9594C65.9552 34.1408 64.7529 34.4379 63.6916 34.8504C62.6302 35.263 61.7928 35.8406 61.1793 36.5831C60.5657 37.3092 60.2587 38.2498 60.2587 39.4049C60.2587 41.0551 60.8642 42.301 62.0748 43.1425C63.2853 43.9841 64.8275 44.4049 66.7015 44.4049Z" fill="#1A202C"/>
<path d="M30.7278 11.7067C38.9255 11.7067 43.543 15.5681 45.0738 21.484L38.3822 22.6721C37.518 20.1226 35.3946 17.5731 30.8018 17.5731C26.604 17.5731 23.4435 19.6522 23.4682 22.5731C23.4435 25.1474 25.2461 26.5582 29.419 27.5484L35.4439 28.9346C42.4071 30.5435 45.8146 33.8603 45.8146 39.2316C45.8146 46.1128 39.4688 50.9891 30.308 50.9891C21.7892 50.9891 16.2087 47.2019 14.9741 40.4692L22.1101 39.3801C22.9991 43.1177 25.8387 45.0238 30.2585 45.0238C35.0982 45.0238 38.2342 42.7218 38.2342 39.7761C38.2342 37.3999 36.5303 35.7662 32.8759 34.9494L26.456 33.5386C19.3447 31.9543 16.0852 28.3652 16.0852 22.969C16.0852 16.2364 22.1594 11.7067 30.7278 11.7067Z" fill="#1A202C"/>
</svg>
